<svg xmlns="http://www.w3.org/2000/svg" xmlns:xlink="http://www.w3.org/1999/xlink" width="322" zoomAndPan="magnify" viewBox="0 0 241.5 74.999997" height="100" preserveAspectRatio="xMidYMid meet" version="1.0"><defs><g/><clipPath id="id1"><path d="M 42 24 L 78.355469 24 L 78.355469 43.199219 L 42 43.199219 Z M 42 24 " clip-rule="nonzero"/></clipPath><clipPath id="id2"><path d="M 40.105469 5.699219 L 58 5.699219 L 58 24 L 40.105469 24 Z M 40.105469 5.699219 " clip-rule="nonzero"/></clipPath></defs><g fill="rgb(100%, 100%, 100%)" fill-opacity="1"><g transform="translate(120.745734, 31.51507)"><g/></g></g><g fill="rgb(100%, 100%, 100%)" fill-opacity="1"><g transform="translate(32.409799, 68.265068)"><g><path d="M 10.203125 0.0976562 L 11.195312 0.0976562 L 12.222656 -0.03125 L 12.886719 -0.03125 L 13.847656 -0.332031 L 15.207031 -0.5625 L 16.761719 -1.226562 L 18.980469 -2.714844 L 20.605469 -4.804688 L 20.9375 -5.464844 L 21.335938 -5.996094 L 21.863281 -7.289062 L 22.03125 -7.917969 L 22.164062 -8.613281 L 22.359375 -9.175781 L 22.460938 -9.839844 L 22.460938 -10.535156 L 22.558594 -11.59375 L 22.527344 -12.554688 L 22.0625 -15.171875 L 21.632812 -16.429688 L 21.367188 -17.0625 L 20.242188 -18.816406 L 18.484375 -20.769531 L 16.796875 -21.898438 L 16.167969 -22.261719 L 15.503906 -22.394531 L 14.941406 -22.660156 L 14.246094 -22.824219 L 12.289062 -23.121094 L 4.738281 -23.1875 L 4.140625 -23.089844 L 3.476562 -23.121094 L 2.75 -22.824219 L 2.453125 -22.128906 L 2.417969 -3.609375 L 2.484375 -2.980469 L 2.484375 -1.292969 L 2.816406 -0.265625 L 3.476562 0.0664062 L 4.140625 0 L 8.183594 0.0664062 L 8.84375 -0.03125 Z M 10.105469 -5.332031 L 9.472656 -5.398438 L 8.710938 -5.765625 L 8.449219 -6.394531 L 8.414062 -6.957031 L 8.449219 -8.316406 L 8.316406 -9.9375 L 8.449219 -11.59375 L 8.382812 -16.167969 L 8.449219 -16.730469 L 8.777344 -17.492188 L 9.839844 -17.722656 L 11.230469 -17.757812 L 12.191406 -17.65625 L 13.484375 -17.292969 L 14.078125 -16.996094 L 14.574219 -16.628906 L 15.074219 -16.167969 L 15.570312 -15.570312 L 15.902344 -15.007812 L 16.199219 -14.410156 L 16.730469 -11.496094 L 16.398438 -9.175781 L 15.835938 -7.949219 L 14.609375 -6.558594 L 13.484375 -5.832031 L 12.523438 -5.53125 L 11.097656 -5.367188 Z M 10.105469 -5.332031 "/></g></g></g><g fill="rgb(100%, 100%, 100%)" fill-opacity="1"><g transform="translate(56.486028, 68.265068)"><g><path d="M 0.429688 -0.894531 L 0.597656 -0.199219 L 1.257812 -0.03125 L 4.175781 -0.03125 L 5.035156 0.0664062 L 5.796875 -0.265625 L 6.394531 -0.859375 L 6.957031 -1.988281 L 7.519531 -2.617188 L 8.316406 -2.949219 L 8.976562 -2.882812 L 10.832031 -2.914062 L 11.527344 -2.816406 L 12.289062 -2.914062 L 12.886719 -2.914062 L 13.582031 -2.847656 L 15.140625 -2.914062 L 16.234375 -2.550781 L 16.929688 -2.019531 L 17.09375 -1.425781 L 17.457031 -0.828125 L 18.019531 -0.296875 L 18.882812 0.03125 L 19.480469 -0.03125 L 20.636719 0.0664062 L 22.691406 0 L 23.289062 -0.199219 L 23.421875 -0.894531 L 23.222656 -1.722656 L 22.992188 -2.320312 L 22.558594 -2.882812 L 22.359375 -3.542969 L 22.03125 -4.042969 L 21.832031 -4.671875 L 21.269531 -5.863281 L 21.035156 -6.492188 L 20.703125 -7.054688 L 20.242188 -8.28125 L 19.875 -8.8125 L 19.613281 -9.472656 L 19.3125 -10.039062 L 19.082031 -10.699219 L 18.785156 -11.195312 L 18.585938 -11.859375 L 18.21875 -12.457031 L 17.957031 -13.019531 L 17.625 -13.582031 L 17.457031 -14.210938 L 16.796875 -15.371094 L 16.597656 -16 L 16 -17.257812 L 15.835938 -17.789062 L 15.339844 -18.949219 L 14.675781 -20.175781 L 14.144531 -21.433594 L 13.847656 -21.929688 L 13.648438 -22.558594 L 13.050781 -23.1875 L 11.925781 -23.488281 L 10.867188 -23.15625 L 10.238281 -22.558594 L 10.039062 -21.964844 L 8.613281 -18.980469 L 8.25 -18.386719 L 6.394531 -14.210938 L 6.226562 -13.648438 L 5.863281 -13.050781 L 5.332031 -11.859375 L 4.835938 -11 L 4.605469 -10.367188 L 4.140625 -9.507812 L 3.941406 -8.8125 L 3.644531 -8.28125 L 3.414062 -7.621094 L 2.484375 -5.898438 L 1.523438 -3.476562 L 1.125 -2.949219 L 0.828125 -2.285156 Z M 10.667969 -8.183594 L 10.039062 -8.449219 L 9.9375 -9.109375 L 11.261719 -12.125 L 11.5625 -12.65625 L 11.992188 -12.984375 L 12.390625 -12.722656 L 12.820312 -11.429688 L 13.183594 -10.867188 L 13.316406 -10.335938 L 13.648438 -9.671875 L 13.878906 -9.078125 L 13.8125 -8.480469 L 13.25 -8.214844 Z M 10.667969 -8.183594 "/></g></g></g><g fill="rgb(100%, 100%, 100%)" fill-opacity="1"><g transform="translate(80.529137, 68.265068)"><g><path d="M 6.359375 -1.027344 L 6.625 -0.332031 L 7.320312 0 L 7.949219 -0.0664062 L 8.613281 0 L 9.242188 -0.0664062 L 11.296875 -0.0664062 L 11.960938 -0.332031 L 12.222656 -0.992188 L 12.191406 -1.625 L 12.257812 -2.386719 L 12.222656 -3.710938 L 12.125 -4.273438 L 12.222656 -4.96875 L 12.289062 -6.988281 L 12.222656 -7.585938 L 12.324219 -8.976562 L 12.191406 -15.570312 L 12.289062 -16.234375 L 12.222656 -16.960938 L 12.488281 -17.558594 L 13.21875 -17.855469 L 13.78125 -17.890625 L 14.445312 -17.855469 L 15.039062 -17.921875 L 16.863281 -17.890625 L 17.625 -18.1875 L 17.957031 -18.847656 L 17.890625 -19.546875 L 17.957031 -22.261719 L 17.625 -22.925781 L 16.960938 -23.253906 L 16.167969 -23.1875 L 15.636719 -23.253906 L 15.007812 -23.253906 L 14.277344 -23.15625 L 13.617188 -23.15625 L 12.953125 -23.222656 L 12.289062 -23.222656 L 11.527344 -23.121094 L 1.65625 -23.1875 L 0.925781 -22.859375 L 0.597656 -22.195312 L 0.5625 -18.882812 L 0.925781 -18.152344 L 1.589844 -17.824219 L 2.453125 -17.921875 L 5.398438 -17.890625 L 5.996094 -17.523438 L 6.328125 -16.894531 L 6.425781 -13.25 L 6.328125 -12.222656 L 6.394531 -11.59375 L 6.328125 -10.933594 L 6.328125 -9.605469 L 6.425781 -8.644531 L 6.292969 -7.652344 L 6.328125 -6.988281 L 6.292969 -6.292969 L 6.394531 -4.273438 L 6.328125 -3.609375 Z M 6.359375 -1.027344 "/></g></g></g><g fill="rgb(100%, 100%, 100%)" fill-opacity="1"><g transform="translate(99.041671, 68.265068)"><g><path d="M 0.429688 -0.894531 L 0.597656 -0.199219 L 1.257812 -0.03125 L 4.175781 -0.03125 L 5.035156 0.0664062 L 5.796875 -0.265625 L 6.394531 -0.859375 L 6.957031 -1.988281 L 7.519531 -2.617188 L 8.316406 -2.949219 L 8.976562 -2.882812 L 10.832031 -2.914062 L 11.527344 -2.816406 L 12.289062 -2.914062 L 12.886719 -2.914062 L 13.582031 -2.847656 L 15.140625 -2.914062 L 16.234375 -2.550781 L 16.929688 -2.019531 L 17.09375 -1.425781 L 17.457031 -0.828125 L 18.019531 -0.296875 L 18.882812 0.03125 L 19.480469 -0.03125 L 20.636719 0.0664062 L 22.691406 0 L 23.289062 -0.199219 L 23.421875 -0.894531 L 23.222656 -1.722656 L 22.992188 -2.320312 L 22.558594 -2.882812 L 22.359375 -3.542969 L 22.03125 -4.042969 L 21.832031 -4.671875 L 21.269531 -5.863281 L 21.035156 -6.492188 L 20.703125 -7.054688 L 20.242188 -8.28125 L 19.875 -8.8125 L 19.613281 -9.472656 L 19.3125 -10.039062 L 19.082031 -10.699219 L 18.785156 -11.195312 L 18.585938 -11.859375 L 18.21875 -12.457031 L 17.957031 -13.019531 L 17.625 -13.582031 L 17.457031 -14.210938 L 16.796875 -15.371094 L 16.597656 -16 L 16 -17.257812 L 15.835938 -17.789062 L 15.339844 -18.949219 L 14.675781 -20.175781 L 14.144531 -21.433594 L 13.847656 -21.929688 L 13.648438 -22.558594 L 13.050781 -23.1875 L 11.925781 -23.488281 L 10.867188 -23.15625 L 10.238281 -22.558594 L 10.039062 -21.964844 L 8.613281 -18.980469 L 8.25 -18.386719 L 6.394531 -14.210938 L 6.226562 -13.648438 L 5.863281 -13.050781 L 5.332031 -11.859375 L 4.835938 -11 L 4.605469 -10.367188 L 4.140625 -9.507812 L 3.941406 -8.8125 L 3.644531 -8.28125 L 3.414062 -7.621094 L 2.484375 -5.898438 L 1.523438 -3.476562 L 1.125 -2.949219 L 0.828125 -2.285156 Z M 10.667969 -8.183594 L 10.039062 -8.449219 L 9.9375 -9.109375 L 11.261719 -12.125 L 11.5625 -12.65625 L 11.992188 -12.984375 L 12.390625 -12.722656 L 12.820312 -11.429688 L 13.183594 -10.867188 L 13.316406 -10.335938 L 13.648438 -9.671875 L 13.878906 -9.078125 L 13.8125 -8.480469 L 13.25 -8.214844 Z M 10.667969 -8.183594 "/></g></g></g><g fill="rgb(100%, 100%, 100%)" fill-opacity="1"><g transform="translate(123.08478, 68.265068)"><g><path d="M 2.417969 -0.992188 L 2.78125 -0.230469 L 3.414062 0.0664062 L 14.378906 -0.0664062 L 15.636719 -0.230469 L 16.730469 -0.664062 L 17.988281 -1.390625 L 18.417969 -1.722656 L 18.949219 -2.21875 L 19.710938 -3.3125 L 20.007812 -3.941406 L 20.140625 -4.503906 L 20.40625 -5.167969 L 20.441406 -7.816406 L 20.308594 -8.449219 L 20.074219 -9.144531 L 19.480469 -10.300781 L 19.015625 -10.867188 L 18.519531 -11.363281 L 18.21875 -12.089844 L 18.351562 -12.753906 L 18.71875 -13.417969 L 19.113281 -13.980469 L 19.578125 -16.363281 L 19.546875 -17.324219 L 19.179688 -18.550781 L 18.847656 -19.179688 L 18.652344 -19.808594 L 17.855469 -20.871094 L 17.390625 -21.335938 L 16.398438 -22.03125 L 15.171875 -22.691406 L 13.316406 -23.121094 L 3.347656 -23.1875 L 2.683594 -22.890625 L 2.386719 -22.195312 L 2.453125 -20.769531 L 2.386719 -19.808594 L 2.519531 -17.589844 L 2.417969 -16.894531 L 2.484375 -16.199219 L 2.417969 -15.570312 L 2.453125 -14.875 L 2.386719 -14.246094 L 2.386719 -11.59375 L 2.484375 -10.898438 L 2.417969 -10.269531 L 2.417969 -8.945312 L 2.484375 -8.316406 L 2.417969 -5.597656 L 2.519531 -4.242188 L 2.386719 -2.253906 Z M 9.210938 -14.210938 L 8.414062 -14.476562 L 8.082031 -15.140625 L 8.214844 -15.703125 L 8.214844 -16.332031 L 8.148438 -16.960938 L 8.515625 -17.523438 L 9.210938 -17.890625 L 11.59375 -17.789062 L 12.621094 -17.589844 L 13.019531 -17.324219 L 13.449219 -16.863281 L 13.550781 -15.96875 L 13.382812 -14.972656 L 12.820312 -14.445312 L 11.695312 -14.210938 Z M 9.109375 -5.265625 L 8.546875 -5.53125 L 8.183594 -6.226562 L 8.214844 -6.792969 L 8.148438 -7.421875 L 8.183594 -8.082031 L 8.414062 -8.679688 L 9.078125 -9.011719 L 12.589844 -9.011719 L 13.515625 -8.84375 L 14.011719 -8.480469 L 14.511719 -8.015625 L 14.574219 -7.089844 L 14.511719 -6.226562 L 14.078125 -5.765625 L 13.484375 -5.398438 L 11.695312 -5.234375 Z M 9.109375 -5.265625 "/></g></g></g><g fill="rgb(100%, 100%, 100%)" fill-opacity="1"><g transform="translate(144.942159, 68.265068)"><g><path d="M 0.429688 -0.894531 L 0.597656 -0.199219 L 1.257812 -0.03125 L 4.175781 -0.03125 L 5.035156 0.0664062 L 5.796875 -0.265625 L 6.394531 -0.859375 L 6.957031 -1.988281 L 7.519531 -2.617188 L 8.316406 -2.949219 L 8.976562 -2.882812 L 10.832031 -2.914062 L 11.527344 -2.816406 L 12.289062 -2.914062 L 12.886719 -2.914062 L 13.582031 -2.847656 L 15.140625 -2.914062 L 16.234375 -2.550781 L 16.929688 -2.019531 L 17.09375 -1.425781 L 17.457031 -0.828125 L 18.019531 -0.296875 L 18.882812 0.03125 L 19.480469 -0.03125 L 20.636719 0.0664062 L 22.691406 0 L 23.289062 -0.199219 L 23.421875 -0.894531 L 23.222656 -1.722656 L 22.992188 -2.320312 L 22.558594 -2.882812 L 22.359375 -3.542969 L 22.03125 -4.042969 L 21.832031 -4.671875 L 21.269531 -5.863281 L 21.035156 -6.492188 L 20.703125 -7.054688 L 20.242188 -8.28125 L 19.875 -8.8125 L 19.613281 -9.472656 L 19.3125 -10.039062 L 19.082031 -10.699219 L 18.785156 -11.195312 L 18.585938 -11.859375 L 18.21875 -12.457031 L 17.957031 -13.019531 L 17.625 -13.582031 L 17.457031 -14.210938 L 16.796875 -15.371094 L 16.597656 -16 L 16 -17.257812 L 15.835938 -17.789062 L 15.339844 -18.949219 L 14.675781 -20.175781 L 14.144531 -21.433594 L 13.847656 -21.929688 L 13.648438 -22.558594 L 13.050781 -23.1875 L 11.925781 -23.488281 L 10.867188 -23.15625 L 10.238281 -22.558594 L 10.039062 -21.964844 L 8.613281 -18.980469 L 8.25 -18.386719 L 6.394531 -14.210938 L 6.226562 -13.648438 L 5.863281 -13.050781 L 5.332031 -11.859375 L 4.835938 -11 L 4.605469 -10.367188 L 4.140625 -9.507812 L 3.941406 -8.8125 L 3.644531 -8.28125 L 3.414062 -7.621094 L 2.484375 -5.898438 L 1.523438 -3.476562 L 1.125 -2.949219 L 0.828125 -2.285156 Z M 10.667969 -8.183594 L 10.039062 -8.449219 L 9.9375 -9.109375 L 11.261719 -12.125 L 11.5625 -12.65625 L 11.992188 -12.984375 L 12.390625 -12.722656 L 12.820312 -11.429688 L 13.183594 -10.867188 L 13.316406 -10.335938 L 13.648438 -9.671875 L 13.878906 -9.078125 L 13.8125 -8.480469 L 13.25 -8.214844 Z M 10.667969 -8.183594 "/></g></g></g><g fill="rgb(100%, 100%, 100%)" fill-opacity="1"><g transform="translate(168.985268, 68.265068)"><g><path d="M 9.605469 0.265625 L 10.566406 0.363281 L 11.628906 0.332031 L 14.875 -0.296875 L 16.597656 -1.226562 L 17.65625 -1.953125 L 18.585938 -3.015625 L 19.246094 -4.074219 L 19.511719 -4.671875 L 19.710938 -5.332031 L 19.808594 -5.929688 L 19.84375 -7.984375 L 19.742188 -8.644531 L 19.578125 -9.277344 L 18.914062 -10.5 L 18.121094 -11.527344 L 17.558594 -11.992188 L 15.800781 -12.789062 L 13.085938 -13.449219 L 9.738281 -13.878906 L 8.347656 -14.378906 L 7.851562 -14.640625 L 7.320312 -15.171875 L 7.289062 -16.066406 L 7.386719 -16.929688 L 7.75 -17.390625 L 8.316406 -17.824219 L 8.777344 -18.019531 L 9.375 -18.152344 L 11.496094 -18.21875 L 12.222656 -17.957031 L 12.722656 -17.558594 L 13.8125 -16.398438 L 14.839844 -16.066406 L 17.027344 -16 L 17.625 -16.066406 L 18.253906 -16 L 18.882812 -16.398438 L 19.179688 -17.027344 L 18.914062 -18.320312 L 18.386719 -19.511719 L 17.957031 -20.042969 L 17.625 -20.570312 L 17.191406 -21.070312 L 15.074219 -22.527344 L 13.25 -23.15625 L 12.554688 -23.289062 L 11.960938 -23.355469 L 11.230469 -23.519531 L 9.375 -23.488281 L 6.757812 -22.957031 L 6.160156 -22.726562 L 5.632812 -22.394531 L 5.101562 -22.195312 L 4.4375 -21.796875 L 3.976562 -21.367188 L 3.378906 -20.96875 L 3.015625 -20.40625 L 2.582031 -19.976562 L 2.351562 -19.378906 L 2.019531 -18.847656 L 1.558594 -16.929688 L 1.589844 -14.707031 L 1.820312 -13.78125 L 2.253906 -12.621094 L 3.082031 -11.527344 L 4.007812 -10.667969 L 5.167969 -9.972656 L 7.054688 -9.34375 L 8.25 -9.078125 L 10.964844 -8.878906 L 11.5625 -8.777344 L 12.222656 -8.746094 L 13.417969 -8.25 L 13.878906 -7.851562 L 14.046875 -6.988281 L 13.847656 -6.128906 L 13.316406 -5.664062 L 12.789062 -5.367188 L 11.5625 -5.003906 L 10.632812 -4.96875 L 9.640625 -5.035156 L 8.878906 -5.234375 L 8.382812 -5.464844 L 7.785156 -5.832031 L 7.289062 -6.292969 L 6.792969 -6.957031 L 6.128906 -7.222656 L 3.609375 -7.289062 L 2.949219 -7.222656 L 2.285156 -7.253906 L 1.625 -6.957031 L 1.390625 -6.261719 L 1.457031 -5.53125 L 1.589844 -4.9375 L 2.121094 -3.609375 L 2.949219 -2.582031 L 3.910156 -1.625 L 4.472656 -1.257812 L 6.855469 -0.164062 L 7.585938 -0.0664062 L 8.214844 0.164062 Z M 9.605469 0.265625 "/></g></g></g><g fill="rgb(100%, 100%, 100%)" fill-opacity="1"><g transform="translate(190.114059, 68.265068)"><g><path d="M 2.386719 -0.960938 L 2.816406 -0.332031 L 3.445312 0.03125 L 10.933594 -0.03125 L 11.527344 0.0664062 L 13.550781 -0.03125 L 15.570312 0.0976562 L 16.199219 0.03125 L 16.894531 -0.296875 L 17.191406 -0.925781 L 17.257812 -1.558594 L 17.226562 -3.609375 L 17.292969 -4.242188 L 16.863281 -4.902344 L 15.867188 -5.234375 L 11.496094 -5.300781 L 10.867188 -5.199219 L 10.136719 -5.265625 L 9.410156 -5.199219 L 8.710938 -5.597656 L 8.414062 -6.625 L 8.449219 -8.25 L 8.746094 -8.945312 L 9.34375 -9.308594 L 10.632812 -9.308594 L 11.296875 -9.375 L 13.050781 -9.277344 L 13.945312 -9.34375 L 14.640625 -9.277344 L 15.238281 -9.308594 L 15.902344 -9.671875 L 16.234375 -10.300781 L 16.296875 -12.917969 L 16.234375 -13.582031 L 15.933594 -14.210938 L 15.371094 -14.574219 L 14.046875 -14.609375 L 13.382812 -14.542969 L 12.6875 -14.542969 L 11.925781 -14.609375 L 9.308594 -14.574219 L 8.746094 -14.941406 L 8.347656 -15.535156 L 8.28125 -16.5625 L 8.613281 -17.523438 L 9.640625 -17.824219 L 16 -17.855469 L 16.695312 -18.21875 L 17.0625 -18.816406 L 16.996094 -20.175781 L 16.894531 -20.804688 L 16.929688 -21.53125 L 17.027344 -22.164062 L 16.695312 -22.824219 L 16 -23.121094 L 13.351562 -23.15625 L 12.753906 -23.089844 L 12.089844 -23.1875 L 10.632812 -23.121094 L 9.972656 -23.1875 L 8.679688 -23.15625 L 8.082031 -23.222656 L 3.742188 -23.121094 L 2.78125 -22.890625 L 2.453125 -22.164062 L 2.519531 -20.835938 L 2.386719 -19.875 L 2.519531 -18.1875 L 2.453125 -17.492188 L 2.519531 -16.894531 L 2.519531 -10.964844 L 2.417969 -10.269531 L 2.519531 -8.976562 L 2.453125 -7.652344 L 2.550781 -6.957031 L 2.484375 -6.226562 L 2.519531 -5.597656 L 2.417969 -5.003906 L 2.484375 -4.242188 L 2.484375 -3.578125 L 2.550781 -2.285156 L 2.519531 -1.625 Z M 2.386719 -0.960938 "/></g></g></g><g fill="rgb(100%, 100%, 100%)" fill-opacity="1"><g transform="translate(90.846242, 38.906856)"><g><path d="M 3.683594 0.105469 L 4.390625 0 L 5.773438 0.0703125 L 6.550781 -0.0351562 L 7.683594 0.0351562 L 8.675781 -0.390625 L 9.101562 -1.027344 L 8.996094 -4.746094 L 9.101562 -5.84375 L 9.066406 -6.585938 L 9.136719 -7.863281 L 9.066406 -8.640625 L 9.066406 -10.023438 L 9.386719 -10.339844 L 9.738281 -10.199219 L 10.304688 -9.738281 L 10.730469 -9.207031 L 12.183594 -7.757812 L 12.644531 -7.1875 L 13.597656 -6.269531 L 14.34375 -5.738281 L 15.121094 -5.703125 L 15.832031 -6.234375 L 16.328125 -6.765625 L 16.75 -7.1875 L 17.742188 -8.359375 L 18.238281 -8.710938 L 19.691406 -10.199219 L 20.152344 -10.410156 L 20.433594 -9.878906 L 20.363281 -7.933594 L 20.46875 -6.515625 L 20.398438 -5.136719 L 20.46875 -3.824219 L 20.398438 -3.1875 L 20.46875 -1.59375 L 20.46875 -1.0625 L 20.753906 -0.246094 L 21.496094 -0.0351562 L 25.78125 0.105469 L 26.527344 -0.285156 L 26.949219 -1.308594 L 26.84375 -3.152344 L 26.914062 -3.859375 L 26.84375 -14.484375 L 26.914062 -15.265625 L 26.878906 -18.769531 L 26.914062 -19.441406 L 26.84375 -20.964844 L 26.878906 -21.566406 L 26.84375 -23.019531 L 26.914062 -23.691406 L 26.492188 -24.4375 L 25.746094 -24.824219 L 24.71875 -24.507812 L 23.976562 -24.046875 L 22.488281 -22.488281 L 22.027344 -21.921875 L 21.601562 -21.53125 L 21.105469 -20.894531 L 17.992188 -17.707031 L 17.53125 -17.105469 L 15.371094 -14.910156 L 14.734375 -14.484375 L 13.988281 -14.769531 L 13.5625 -15.371094 L 13.066406 -15.867188 L 12.429688 -16.679688 L 11.652344 -17.390625 L 8.429688 -20.964844 L 7.933594 -21.390625 L 7.011719 -22.488281 L 6.445312 -22.984375 L 5.523438 -23.941406 L 4.710938 -24.542969 L 3.71875 -24.824219 L 2.9375 -24.472656 L 2.550781 -23.726562 L 2.65625 -21.566406 L 2.550781 -20.1875 L 2.621094 -19.550781 L 2.585938 -13.882812 L 2.65625 -13.175781 L 2.550781 -9.597656 L 2.621094 -8.925781 L 2.585938 -1.097656 L 2.976562 -0.355469 Z M 3.683594 0.105469 "/></g></g></g><g fill="rgb(100%, 100%, 100%)" fill-opacity="1"><g transform="translate(120.452427, 38.906856)"><g><path d="M 13.246094 0.425781 L 15.226562 0.390625 L 17.351562 0.105469 L 20.007812 -0.777344 L 21.179688 -1.417969 L 21.710938 -1.839844 L 22.382812 -2.160156 L 23.375 -3.011719 L 23.835938 -3.648438 L 24.332031 -4.144531 L 25.886719 -6.515625 L 26.417969 -7.863281 L 26.703125 -9.207031 L 26.738281 -9.84375 L 26.914062 -10.554688 L 26.949219 -11.296875 L 27.09375 -12.324219 L 26.984375 -14.09375 L 26.738281 -15.546875 L 25.851562 -18.203125 L 25.179688 -19.511719 L 24.402344 -20.574219 L 23.410156 -21.675781 L 22.382812 -22.558594 L 21.566406 -23.125 L 20.503906 -23.585938 L 19.972656 -23.976562 L 17.246094 -24.824219 L 15.191406 -25.179688 L 14.238281 -25.214844 L 10.484375 -24.683594 L 7.828125 -23.691406 L 7.296875 -23.304688 L 6.65625 -22.984375 L 5.453125 -22.097656 L 3.71875 -20.082031 L 2.621094 -18.203125 L 2.089844 -16.859375 L 1.488281 -14.128906 L 1.382812 -11.261719 L 1.488281 -10.519531 L 1.664062 -9.878906 L 1.734375 -9.207031 L 2.054688 -7.863281 L 3.683594 -4.640625 L 4.109375 -4.214844 L 4.570312 -3.648438 L 5.101562 -3.152344 L 5.488281 -2.691406 L 6.65625 -1.769531 L 9.421875 -0.355469 L 10.449219 0 L 11.226562 0.0703125 L 12.5 0.355469 Z M 15.226562 -5.84375 L 13.28125 -5.84375 L 12.5 -5.949219 L 11.226562 -6.480469 L 10.660156 -6.800781 L 9.703125 -7.578125 L 9.242188 -8.074219 L 8.746094 -8.746094 L 8.570312 -9.3125 L 8.25 -9.953125 L 7.96875 -11.261719 L 7.96875 -13.421875 L 8.144531 -14.058594 L 8.25 -14.734375 L 8.535156 -15.371094 L 8.746094 -16.007812 L 9.597656 -17.140625 L 11.367188 -18.34375 L 11.828125 -18.523438 L 13.210938 -18.875 L 14.203125 -18.945312 L 15.902344 -18.734375 L 16.539062 -18.59375 L 17.175781 -18.308594 L 18.273438 -17.53125 L 19.65625 -16.078125 L 20.082031 -14.734375 L 20.398438 -14.058594 L 20.503906 -13.421875 L 20.433594 -11.261719 L 20.152344 -9.953125 L 19.902344 -9.3125 L 19.511719 -8.675781 L 19.300781 -8.144531 L 18.804688 -7.578125 L 17.105469 -6.410156 L 16.46875 -6.234375 L 15.9375 -5.984375 Z M 15.226562 -5.84375 "/></g></g></g><g fill="rgb(100%, 100%, 100%)" fill-opacity="1"><g transform="translate(148.854533, 38.906856)"><g><path d="M 9.988281 -0.636719 L 10.554688 0 L 11.402344 0.320312 L 12.113281 0.390625 L 13.066406 -0.0351562 L 13.671875 -0.601562 L 13.882812 -1.273438 L 14.484375 -2.65625 L 14.804688 -3.328125 L 15.15625 -3.929688 L 15.722656 -5.207031 L 15.9375 -5.84375 L 18.0625 -10.375 L 18.488281 -11.757812 L 19.230469 -13.03125 L 19.621094 -14.378906 L 20.007812 -15.085938 L 20.1875 -15.6875 L 20.363281 -16.363281 L 20.859375 -17 L 21.035156 -17.671875 L 21.496094 -18.203125 L 22.027344 -19.585938 L 22.207031 -20.222656 L 22.59375 -20.824219 L 22.84375 -21.53125 L 23.195312 -22.207031 L 23.339844 -22.808594 L 23.691406 -23.65625 L 23.480469 -24.542969 L 22.878906 -24.753906 L 18.699219 -24.753906 L 17.882812 -24.472656 L 17.246094 -23.800781 L 17.070312 -23.160156 L 12.855469 -12.785156 L 12.5 -12.113281 L 12.324219 -11.472656 L 11.898438 -10.835938 L 11.472656 -10.765625 L 11.191406 -11.402344 L 10.730469 -12.75 L 10.449219 -13.386719 L 10.234375 -14.09375 L 9.988281 -14.660156 L 9.597656 -15.300781 L 9.171875 -16.714844 L 8.855469 -17.28125 L 8.605469 -17.921875 L 8.464844 -18.628906 L 7.226562 -21.179688 L 7.117188 -21.851562 L 6.765625 -22.523438 L 6.515625 -23.160156 L 6.199219 -23.726562 L 5.59375 -24.4375 L 4.78125 -24.71875 L 2.796875 -24.824219 L 2.195312 -24.753906 L 1.558594 -24.824219 L 0.816406 -24.789062 L 0.0703125 -24.472656 L 0 -23.691406 L 0.140625 -22.84375 L 0.460938 -22.207031 L 0.992188 -20.859375 L 1.308594 -20.222656 L 1.523438 -19.585938 L 1.914062 -18.910156 L 2.480469 -17.53125 L 2.832031 -16.894531 L 3.894531 -14.308594 L 4.25 -13.742188 L 6.585938 -8.464844 L 6.765625 -7.863281 L 7.367188 -6.585938 L 7.578125 -5.914062 L 8.5 -3.859375 L 8.855469 -3.328125 L 9.03125 -2.585938 Z M 9.988281 -0.636719 "/></g></g></g><g fill="rgb(100%, 100%, 100%)" fill-opacity="1"><g transform="translate(172.723634, 38.906856)"><g><path d="M 1.699219 -1.027344 L 2.054688 -0.285156 L 2.761719 -0.0351562 L 13.28125 0.0351562 L 13.953125 -0.320312 L 14.34375 -0.957031 L 14.34375 -1.734375 L 14.273438 -2.371094 L 14.378906 -4.53125 L 13.882812 -5.136719 L 11.511719 -5.878906 L 11.121094 -6.585938 L 11.191406 -9.492188 L 11.050781 -10.90625 L 11.191406 -12.394531 L 11.121094 -13.457031 L 11.191406 -14.554688 L 11.121094 -15.226562 L 11.191406 -15.9375 L 11.121094 -16.679688 L 11.121094 -18.167969 L 11.511719 -18.804688 L 12.183594 -19.195312 L 12.960938 -19.230469 L 13.636719 -19.621094 L 14.023438 -20.292969 L 14.023438 -22.382812 L 14.09375 -23.019531 L 14.023438 -23.726562 L 13.742188 -24.4375 L 12.609375 -24.753906 L 8.109375 -24.789062 L 7.332031 -24.71875 L 5.171875 -24.753906 L 4.496094 -24.71875 L 3.117188 -24.789062 L 2.335938 -24.4375 L 1.949219 -23.691406 L 1.949219 -23.019531 L 1.878906 -22.417969 L 1.878906 -21.636719 L 1.949219 -20.929688 L 1.949219 -20.257812 L 2.300781 -19.585938 L 4.460938 -18.839844 L 4.921875 -18.203125 L 4.816406 -15.191406 L 4.851562 -14.589844 L 4.957031 -13.777344 L 4.921875 -12.324219 L 4.851562 -11.617188 L 4.992188 -10.234375 L 4.816406 -9.527344 L 4.957031 -8.003906 L 4.886719 -6.621094 L 4.53125 -5.84375 L 2.195312 -5.101562 L 1.769531 -4.425781 L 1.699219 -3.753906 Z M 1.699219 -1.027344 "/></g></g></g><g fill="rgb(100%, 100%, 100%)" fill-opacity="1"><g transform="translate(188.801633, 38.906856)"><g><path d="M 2.550781 -1.027344 L 3.011719 -0.355469 L 3.683594 0.0351562 L 11.6875 -0.0351562 L 12.324219 0.0703125 L 14.484375 -0.0351562 L 16.644531 0.105469 L 17.316406 0.0351562 L 18.0625 -0.320312 L 18.378906 -0.992188 L 18.453125 -1.664062 L 18.414062 -3.859375 L 18.488281 -4.53125 L 18.027344 -5.242188 L 16.964844 -5.59375 L 12.289062 -5.667969 L 11.617188 -5.558594 L 10.835938 -5.632812 L 10.058594 -5.558594 L 9.3125 -5.984375 L 8.996094 -7.082031 L 9.03125 -8.816406 L 9.347656 -9.5625 L 9.988281 -9.953125 L 11.367188 -9.953125 L 12.078125 -10.023438 L 13.953125 -9.917969 L 14.910156 -9.988281 L 15.652344 -9.917969 L 16.289062 -9.953125 L 17 -10.339844 L 17.351562 -11.015625 L 17.425781 -13.8125 L 17.351562 -14.519531 L 17.035156 -15.191406 L 16.433594 -15.582031 L 15.015625 -15.617188 L 14.308594 -15.546875 L 13.5625 -15.546875 L 12.75 -15.617188 L 9.953125 -15.582031 L 9.347656 -15.972656 L 8.925781 -16.609375 L 8.855469 -17.707031 L 9.207031 -18.734375 L 10.304688 -19.054688 L 17.105469 -19.089844 L 17.847656 -19.476562 L 18.238281 -20.117188 L 18.167969 -21.566406 L 18.0625 -22.242188 L 18.097656 -23.019531 L 18.203125 -23.691406 L 17.847656 -24.402344 L 17.105469 -24.71875 L 14.273438 -24.753906 L 13.636719 -24.683594 L 12.925781 -24.789062 L 11.367188 -24.71875 L 10.660156 -24.789062 L 9.277344 -24.753906 L 8.640625 -24.824219 L 4 -24.71875 L 2.976562 -24.472656 L 2.621094 -23.691406 L 2.691406 -22.277344 L 2.550781 -21.25 L 2.691406 -19.441406 L 2.621094 -18.699219 L 2.691406 -18.0625 L 2.691406 -11.722656 L 2.585938 -10.980469 L 2.691406 -9.597656 L 2.621094 -8.179688 L 2.726562 -7.4375 L 2.65625 -6.65625 L 2.691406 -5.984375 L 2.585938 -5.347656 L 2.65625 -4.53125 L 2.65625 -3.824219 L 2.726562 -2.445312 L 2.691406 -1.734375 Z M 2.550781 -1.027344 "/></g></g></g><g clip-path="url(#id1)"><path fill="rgb(100%, 100%, 100%)" d="M 76.925781 39.199219 L 75.761719 38.765625 L 75.761719 27.671875 L 76.925781 27.234375 Z M 70.472656 29.648438 L 74.890625 27.996094 L 74.890625 38.4375 L 70.472656 36.785156 Z M 68.933594 39.382812 C 68.933594 40.632812 67.925781 41.648438 66.6875 41.648438 L 46.757812 41.648438 C 45.519531 41.648438 44.511719 40.632812 44.511719 39.382812 L 44.511719 27.824219 C 44.511719 26.574219 45.519531 25.554688 46.757812 25.554688 L 66.6875 25.554688 C 67.925781 25.554688 68.933594 26.574219 68.933594 27.824219 Z M 78.046875 25.609375 C 77.855469 25.476562 77.609375 25.445312 77.390625 25.527344 L 70.472656 28.113281 L 70.472656 27.824219 C 70.472656 25.71875 68.773438 24.003906 66.6875 24.003906 L 46.757812 24.003906 C 44.671875 24.003906 42.972656 25.71875 42.972656 27.824219 L 42.972656 39.382812 C 42.972656 41.488281 44.671875 43.199219 46.757812 43.199219 L 66.6875 43.199219 C 68.773438 43.199219 70.472656 41.488281 70.472656 39.382812 L 70.472656 38.320312 L 77.390625 40.910156 C 77.472656 40.9375 77.554688 40.953125 77.636719 40.953125 C 77.78125 40.953125 77.925781 40.910156 78.046875 40.824219 C 78.238281 40.691406 78.351562 40.46875 78.351562 40.234375 L 78.351562 26.199219 C 78.351562 25.964844 78.238281 25.746094 78.046875 25.609375 " fill-opacity="1" fill-rule="nonzero"/></g><g clip-path="url(#id2)"><path fill="rgb(100%, 100%, 100%)" d="M 41.640625 14.367188 C 41.640625 10.441406 44.804688 7.246094 48.695312 7.246094 C 52.582031 7.246094 55.746094 10.441406 55.746094 14.367188 C 55.746094 18.292969 52.582031 21.484375 48.695312 21.484375 C 44.804688 21.484375 41.640625 18.292969 41.640625 14.367188 Z M 57.285156 14.367188 C 57.285156 9.585938 53.429688 5.695312 48.695312 5.695312 C 43.957031 5.695312 40.105469 9.585938 40.105469 14.367188 C 40.105469 19.148438 43.957031 23.035156 48.695312 23.035156 C 53.429688 23.035156 57.285156 19.148438 57.285156 14.367188 " fill-opacity="1" fill-rule="nonzero"/></g><path fill="rgb(100%, 100%, 100%)" d="M 47.78125 14.367188 C 47.78125 13.859375 48.191406 13.445312 48.695312 13.445312 C 49.195312 13.445312 49.605469 13.859375 49.605469 14.367188 C 49.605469 14.875 49.195312 15.285156 48.695312 15.285156 C 48.191406 15.285156 47.78125 14.875 47.78125 14.367188 Z M 50.476562 14.367188 C 50.476562 13.375 49.675781 12.566406 48.695312 12.566406 C 47.710938 12.566406 46.910156 13.375 46.910156 14.367188 C 46.910156 15.359375 47.710938 16.167969 48.695312 16.167969 C 49.675781 16.167969 50.476562 15.359375 50.476562 14.367188 " fill-opacity="1" fill-rule="nonzero"/><path fill="rgb(100%, 100%, 100%)" d="M 65.03125 10.960938 C 67.910156 10.960938 70.246094 13.320312 70.246094 16.222656 C 70.246094 19.125 67.910156 21.484375 65.03125 21.484375 C 62.15625 21.484375 59.820312 19.125 59.820312 16.222656 C 59.820312 13.320312 62.15625 10.960938 65.03125 10.960938 Z M 65.03125 23.035156 C 68.753906 23.035156 71.785156 19.980469 71.785156 16.222656 C 71.785156 12.464844 68.753906 9.410156 65.03125 9.410156 C 61.3125 9.410156 58.28125 12.464844 58.28125 16.222656 C 58.28125 19.980469 61.3125 23.035156 65.03125 23.035156 " fill-opacity="1" fill-rule="nonzero"/><path fill="rgb(100%, 100%, 100%)" d="M 65.03125 15.386719 C 65.488281 15.386719 65.859375 15.761719 65.859375 16.222656 C 65.859375 16.683594 65.488281 17.058594 65.03125 17.058594 C 64.578125 17.058594 64.207031 16.683594 64.207031 16.222656 C 64.207031 15.761719 64.578125 15.386719 65.03125 15.386719 Z M 65.03125 17.8125 C 65.902344 17.8125 66.609375 17.097656 66.609375 16.222656 C 66.609375 15.347656 65.902344 14.632812 65.03125 14.632812 C 64.164062 14.632812 63.457031 15.347656 63.457031 16.222656 C 63.457031 17.097656 64.164062 17.8125 65.03125 17.8125 " fill-opacity="1" fill-rule="nonzero"/><path fill="rgb(100%, 100%, 100%)" d="M 63.25 31.3125 C 63.25 31.550781 63.054688 31.746094 62.820312 31.746094 L 52.035156 31.746094 C 51.796875 31.746094 51.605469 31.550781 51.605469 31.3125 L 51.605469 30.238281 C 51.605469 30 51.796875 29.804688 52.035156 29.804688 L 62.820312 29.804688 C 63.054688 29.804688 63.25 30 63.25 30.238281 Z M 62.820312 28.917969 L 52.035156 28.917969 C 51.316406 28.917969 50.726562 29.507812 50.726562 30.238281 L 50.726562 31.3125 C 50.726562 32.039062 51.316406 32.628906 52.035156 32.628906 L 62.820312 32.628906 C 63.539062 32.628906 64.128906 32.039062 64.128906 31.3125 L 64.128906 30.238281 C 64.128906 29.507812 63.539062 28.917969 62.820312 28.917969 " fill-opacity="1" fill-rule="nonzero"/></svg>